<svg xmlns="http://www.w3.org/2000/svg" viewBox="0 0 200 200" fill="none" stroke="currentColor" stroke-width="1.25" stroke-linecap="round" stroke-linejoin="round"><path pathLength="1" class="fine soft" d="M14 114Q100 115 186 114"/><path pathLength="1" class="fine soft" d="M14 126Q100 127 186 126"/><path pathLength="1" class="fine soft" d="M14 138Q100 139 186 138"/><path pathLength="1" class="fine soft" d="M14 150Q100 151 186 150"/><path pathLength="1" class="fine soft" d="M14 162Q100 163 186 162"/><path pathLength="1" class="fine soft" d="M14 114V162M186 114V162"/><path pathLength="1" class="fine soft" d="M18 114V162"/><path pathLength="1" d="M80.8 144L81.3 146L81.2 148.2L80.5 150.4L79.3 152.6L77.5 154.8L75.3 156.7L72.8 158.4L69.9 159.7L67 160.7L64 161.3L61 161.4L58.3 161.1L55.9 160.4L53.8 159.3L52.2 157.8L51.2 156L50.7 154L50.8 151.8L51.5 149.6L52.7 147.4L54.5 145.2L56.7 143.3L59.2 141.6L62.1 140.3L65 139.3L68 138.7L71 138.6L73.7 138.9L76.1 139.6L78.2 140.7L79.8 142.2L80.8 144Z"/><path pathLength="1" class="fine" d="M78.2 148.2L77.4 150.1L76.1 152L74.2 153.8L72 155.4L69.4 156.7L66.7 157.7L63.9 158.3L61.2 158.5L58.8 158.3L56.7 157.6L55.2 156.6L54.1 155.2L53.6 153.6L53.8 151.8L54.6 149.9L55.9 148L57.8 146.2L60 144.6L62.6 143.3L65.3 142.3L68.1 141.7L70.8 141.5L73.2 141.7"/><path pathLength="1" class="fine" d="M54.5 153.6L76.3 144.7"/><path pathLength="1" class="fine" d="M55.3 155.4L77.1 146.6"/><path pathLength="1" class="fine" d="M56.5 157.1L77.4 148.6"/><path pathLength="1" class="fine" d="M58.2 158.6L77.3 150.8"/><path pathLength="1" class="fine" d="M60.5 159.8L76.6 153.3"/><path pathLength="1" class="fine" d="M63.6 160.5L75.2 155.8"/><path pathLength="1" class="fine soft" d="M55.6 151.8L55.9 150.5L56.6 149.2L57.6 148L58.8 146.8L60.2 145.7L61.8 144.7L63.5 143.9"/><path pathLength="1" d="M144.8 132L145.3 134L145.2 136.2L144.5 138.4L143.3 140.6L141.5 142.8L139.3 144.7L136.8 146.4L133.9 147.7L131 148.7L128 149.3L125 149.4L122.3 149.1L119.9 148.4L117.8 147.3L116.2 145.8L115.2 144L114.7 142L114.8 139.8L115.5 137.6L116.7 135.4L118.5 133.2L120.7 131.3L123.2 129.6L126.1 128.3L129 127.3L132 126.7L135 126.6L137.7 126.9L140.1 127.6L142.2 128.7L143.8 130.2L144.8 132Z"/><path pathLength="1" class="fine" d="M142.2 136.2L141.4 138.1L140.1 140L138.2 141.8L136 143.4L133.4 144.7L130.7 145.7L127.9 146.3L125.2 146.5L122.8 146.3L120.7 145.6L119.2 144.6L118.1 143.2L117.6 141.6L117.8 139.8L118.6 137.9L119.9 136L121.8 134.2L124 132.6L126.6 131.3L129.3 130.3L132.1 129.7L134.8 129.5L137.2 129.7"/><path pathLength="1" class="fine" d="M118.5 141.6L140.3 132.7"/><path pathLength="1" class="fine" d="M119.3 143.4L141.1 134.6"/><path pathLength="1" class="fine" d="M120.5 145.1L141.4 136.6"/><path pathLength="1" class="fine" d="M122.2 146.6L141.3 138.8"/><path pathLength="1" class="fine" d="M124.5 147.8L140.6 141.3"/><path pathLength="1" class="fine" d="M127.6 148.5L139.2 143.8"/><path pathLength="1" class="fine soft" d="M119.6 139.8L119.9 138.5L120.6 137.2L121.6 136L122.8 134.8L124.2 133.7L125.8 132.7L127.5 131.9"/><path pathLength="1" d="M81.3 146.7V63"/><path pathLength="1" class="fine" d="M84.4 143V62.4"/><path pathLength="1" d="M145.3 134.7V51"/><path pathLength="1" class="fine" d="M148.4 131V50.4"/><path pathLength="1" class="accent" d="M81.3 62C100 58 125 53 145.3 50L145.3 58C125 61 100 66 81.3 70Z"/><path pathLength="1" class="accent" d="M81.3 77C100 73 125 68 145.3 65L145.3 70C125 73 100 78 81.3 82Z"/><path pathLength="1" class="accent fine" d="M84 68.5L87 63.2"/><path pathLength="1" class="accent fine" d="M89.6 67.4L92.6 62.1"/><path pathLength="1" class="accent fine" d="M95.2 66.4L98.2 61.1"/><path pathLength="1" class="accent fine" d="M100.8 65.3L103.8 60"/><path pathLength="1" class="accent fine" d="M106.4 64.3L109.4 59"/><path pathLength="1" class="accent fine" d="M112 63.2L115 57.9"/><path pathLength="1" class="accent fine" d="M117.6 62.2L120.6 56.9"/><path pathLength="1" class="accent fine" d="M123.2 61.1L126.2 55.8"/><path pathLength="1" class="accent fine" d="M128.8 60.1L131.8 54.8"/><path pathLength="1" class="accent fine" d="M134.4 59L137.4 53.7"/><path pathLength="1" class="accent fine" d="M140 58L143 52.7"/><path pathLength="1" d="M145.3 50C153 49 159 45 160 39C161 34 156 34 155.5 38"/><path pathLength="1" class="fine" d="M155.5 38C155 41 158 42 160 40"/><path pathLength="1" class="fine" d="M81.3 146.7C79 152 75 156 70 158"/><path pathLength="1" class="fine" d="M26 78Q19 88 26 98M32 82Q27 88 32 94"/><path pathLength="1" class="accent" d="M20 72Q8 88 20 104"/><path pathLength="1" class="fine" d="M166 74Q175 86 166 98"/><path pathLength="1" class="accent" d="M172 68Q186 86 172 104"/><path pathLength="1" class="soft" d="M40 43V53M35 48H45"/><path pathLength="1" class="soft fine" d="M37.8 45.8L42.2 50.2M37.8 50.2L42.2 45.8"/><path pathLength="1" class="soft" d="M118 23.5V32.5M113.5 28H122.5"/><path pathLength="1" class="soft fine" d="M116 26L120 30M116 30L120 26"/><path pathLength="1" class="soft" d="M176 28.5V35.5M172.5 32H179.5"/><path pathLength="1" class="soft fine" d="M174.4 30.4L177.6 33.6M174.4 33.6L177.6 30.4"/><path pathLength="1" class="soft" d="M22 131V137M19 134H25"/><path pathLength="1" class="soft fine" d="M20.6 132.7L23.4 135.3M20.6 135.3L23.4 132.7"/><path pathLength="1" class="fine" d="M56 34h.1"/><path pathLength="1" class="fine" d="M90 42h.1"/><path pathLength="1" class="fine" d="M160 56h.1"/><path pathLength="1" class="fine" d="M104 100h.1"/><path pathLength="1" class="fine" d="M34 66h.1"/><path pathLength="1" class="fine soft" d="M40 182Q100 188 160 180"/></svg>