<svg xmlns="http://www.w3.org/2000/svg" viewBox="0 0 200 200" fill="none" stroke="currentColor" stroke-width="1.25" stroke-linecap="round" stroke-linejoin="round"><path pathLength="1" d="M40 160H160"/><path pathLength="1" d="M38 106C60 78 112 72 152 100"/><path pathLength="1" d="M38 106C70 124 120 120 152 100"/><path pathLength="1" d="M152 100L166 108"/><path pathLength="1" d="M46 86C72 62 122 58 158 84"/><circle pathLength="1" class="accent" cx="96" cy="98" r="10"/><circle pathLength="1" cx="96" cy="98" r="3"/><path pathLength="1" d="M98 118V138C98 150 116 152 120 144C123 137 114 134 111 139"/><path pathLength="1" d="M42 110C38 126 50 138 62 138"/><path pathLength="1" d="M62 138C66 138 66 132 62 132"/><path pathLength="1" d="M40 40H52M148 40H160M100 28V38"/></svg>