<svg xmlns="http://www.w3.org/2000/svg" viewBox="0 0 200 200" fill="none" stroke="currentColor" stroke-width="1.25" stroke-linecap="round" stroke-linejoin="round"><path class="soft" pathLength="1" d="M6 150C40 149.5 90 150 120 150"/><path class="soft fine" pathLength="1" d="M6 143.5C40 143 90 143.5 120 143.5"/><path class="soft fine" pathLength="1" d="M122 160L70 168"/><path pathLength="1" d="M121 30L121 150M178 28L178 150"/><path pathLength="1" d="M121 30C140 28 160 27 178 28"/><path class="fine" pathLength="1" d="M126 35L126 150M172 35L172 150"/><path class="fine" pathLength="1" d="M126 35C142 34 158 33 172 34"/><g class="lv-lamp"><path class="accent fine" pathLength="1" d="M130 38L130 149"/><path class="accent fine" pathLength="1" d="M134 39.2L134 149"/><path class="accent fine" pathLength="1" d="M138 40.4L138 149"/><path class="accent fine" pathLength="1" d="M142 41.6L142 149"/><path class="accent fine" pathLength="1" d="M146 42.8L146 149"/></g><path pathLength="1" d="M172 35L149 41L149 152L172 150"/><path pathLength="1" d="M149 41L149 152"/><path class="fine" pathLength="1" d="M153.5 52L153.5 92L167 90.5L167 50.5Z"/><path class="fine" pathLength="1" d="M153.5 100L153.5 140L167 139L167 98.5Z"/><circle pathLength="1" cx="152" cy="97" r="1.8"/><path class="fine soft" pathLength="1" d="M171 37C168 80 168 120 171.5 148"/><g class="lv-lamp lv-r"><path class="accent fine" pathLength="1" d="M126 151L149 153L96 186L40 176Z"/><path class="accent fine" pathLength="1" d="M128.6 152.4L55.2 177"/><path class="accent fine" pathLength="1" d="M133.2 152.8L66.4 179"/><path class="accent fine" pathLength="1" d="M137.8 153.2L77.6 181"/><path class="accent fine" pathLength="1" d="M142.4 153.6L88.8 183"/></g><path pathLength="1" d="M44 114C60 112 78 111 92 112L112 128C95 130 78 130 62 130Z"/><path pathLength="1" d="M62 130L62 135M112 128L112 133"/><path pathLength="1" d="M62 135C80 135 96 134 112 133"/><path class="fine" pathLength="1" d="M44 114L44 119M92 112L92 117"/><path pathLength="1" d="M44 114C43.5 90 43 70 43 49"/><path pathLength="1" d="M92 112C92 90 91.5 70 91 47"/><path class="fine" pathLength="1" d="M47.5 114C47 90 46.5 70 46.5 51"/><path class="fine" pathLength="1" d="M88.5 112C88.5 90 88 70 87.5 49"/><path pathLength="1" d="M43 49C58 44 76 44 91 47C91 53 91 55 91 56C76 53 58 53 43 58Z"/><path class="fine" pathLength="1" d="M45 52C60 48 76 48 90 50"/><path pathLength="1" d="M44 72C58 70 76 70 91.5 72"/><path class="fine" pathLength="1" d="M44 78C58 76 76 76 91.5 78"/><path pathLength="1" d="M44 96C58 94 76 94 92 96"/><path class="fine" pathLength="1" d="M44 102C58 100 76 100 92 102"/><path class="fine soft" pathLength="1" d="M56 58L56.4 70"/><path class="fine soft" pathLength="1" d="M56 79L56.4 94"/><path class="fine soft" pathLength="1" d="M68 58L68.4 70"/><path class="fine soft" pathLength="1" d="M68 79L68.4 94"/><path class="fine soft" pathLength="1" d="M80 58L80.4 70"/><path class="fine soft" pathLength="1" d="M80 79L80.4 94"/><path class="fine soft" pathLength="1" d="M52 50.5C58 50 66 50 72 50.5"/><path class="fine soft" pathLength="1" d="M45.2 62C45.4 70 45 78 45.3 86"/><path pathLength="1" d="M62 135L62 177"/><path class="fine" pathLength="1" d="M65.5 135L65 177"/><path pathLength="1" d="M112 133L112 172"/><path class="fine soft" pathLength="1" d="M108.5 133L108.5 172"/><path pathLength="1" d="M44 119L44 160"/><path class="soft" pathLength="1" d="M92 117L92 158"/><path pathLength="1" d="M62 156C80 156 96 155 112 154"/><path class="fine" pathLength="1" d="M62 160C80 160 96 159 112 158"/><path pathLength="1" d="M62 152L44 144"/><path class="soft" pathLength="1" d="M112 150L92 142"/><path class="fine" pathLength="1" d="M60.5 177C62 178 65 178 66.5 177"/><path class="fine" pathLength="1" d="M110.5 172C112 173 114 173 115 172"/><path class="fine soft" pathLength="1" d="M52 118C64 116 76 116 88 117"/><path class="fine soft" pathLength="1" d="M60 124C72 123 86 124 100 125"/><path class="soft" pathLength="1" d="M30 179C50 184 90 185 112 180"/><path class="soft fine" pathLength="1" d="M38 180L26 171"/><path class="soft fine" pathLength="1" d="M48 182L36 173"/><path class="soft fine" pathLength="1" d="M60 183L48 174"/><path class="soft fine" pathLength="1" d="M72 183L60 174"/><path class="soft fine" pathLength="1" d="M84 182L72 173"/><g class="lv-fall"><path class="accent" pathLength="1" d="M52 28C60.4 28.6 63.7 36.1 60.5 43.9C52.2 42.2 47.8 35.3 52 28"/><path class="accent fine" pathLength="1" d="M51 26.1Q55.7 36.3 59.8 42.6"/><path class="accent fine" pathLength="1" d="M54.5 32.8L58.3 33.2M54.5 32.8L52.8 36.2M56.2 35.9L59.8 36.5M56.2 35.9L54.7 39.2M57.9 39.1L61.2 39.8M57.9 39.1L56.7 42.2"/><path class="accent fine" pathLength="1" d="M46 12C42 16 44 20 49 22"/></g><path class="soft fine" pathLength="1" d="M72 38C80 46 82 56 78 66"/><g class="lv-float"><circle class="lv-twinkle accent" pathLength="1" cx="136" cy="70" r="0.6"/><circle class="lv-twinkle accent" pathLength="1" cx="140" cy="96" r="0.6"/><circle class="lv-twinkle accent" pathLength="1" cx="133" cy="118" r="0.6"/><circle class="lv-twinkle accent" pathLength="1" cx="144" cy="128" r="0.6"/><circle class="lv-twinkle accent" pathLength="1" cx="138" cy="52" r="0.6"/></g></svg>
