<svg xmlns="http://www.w3.org/2000/svg" viewBox="0 0 200 200" fill="none" stroke="currentColor" stroke-width="1.25" stroke-linecap="round" stroke-linejoin="round"><circle pathLength="1" cx="100" cy="100" r="50"/><circle pathLength="1" cx="100" cy="100" r="40"/><circle pathLength="1" cx="100" cy="100" r="30"/><circle pathLength="1" class="accent" cx="100" cy="100" r="19"/><path pathLength="1" class="accent" d="M76 76A34 34 0 0 1 126 72"/><path pathLength="1" d="M90 100Q100 92 110 100Q100 108 90 100"/><circle pathLength="1" cx="100" cy="100" r="2.2"/><path pathLength="1" d="M98 106q-1 4 -4 5"/><path pathLength="1" class="accent" d="M100 42L100 30M117.9 44.8L120.1 38.2M134.1 53.1L141.1 43.4M146.9 65.9L152.6 61.8M155.2 82.1L166.6 78.4M158 100L165 100M155.2 117.9L166.6 121.6M146.9 134.1L152.6 138.2M134.1 146.9L141.1 156.6M117.9 155.2L120.1 161.8M100 158L100 170M82.1 155.2L79.9 161.8M65.9 146.9L58.9 156.6M53.1 134.1L47.4 138.2M44.8 117.9L33.4 121.6M42 100L35 100M44.8 82.1L33.4 78.4M53.1 65.9L47.4 61.8M65.9 53.1L58.9 43.4M82.1 44.8L79.9 38.2"/></svg>